<svg width="106" height="36" viewBox="0 0 106 36" fill="none" xmlns="http://www.w3.org/2000/svg">
<rect x="0.704346" y="0.114529" width="34.1938" height="35.7709" rx="17.0969" fill="#EEEEEE"/>
<path d="M13.07 10.1145L10.7043 13.2687V24.3084C10.7043 24.7266 10.8705 25.1278 11.1663 25.4236C11.462 25.7193 11.8632 25.8855 12.2814 25.8855H23.3211C23.7394 25.8855 24.1405 25.7193 24.4363 25.4236C24.732 25.1278 24.8982 24.7266 24.8982 24.3084V13.2687L22.5326 10.1145H13.07Z" stroke="#0E3F25" stroke-width="1.57709" stroke-linecap="round" stroke-linejoin="round"/>
<path d="M10.7043 13.2687H24.8982" stroke="#0E3F25" stroke-width="1.57709" stroke-linecap="round" stroke-linejoin="round"/>
<path d="M20.9555 16.4229C20.9555 17.2594 20.6232 18.0617 20.0316 18.6533C19.4401 19.2448 18.6378 19.5771 17.8013 19.5771C16.9647 19.5771 16.1625 19.2448 15.5709 18.6533C14.9794 18.0617 14.6471 17.2594 14.6471 16.4229" stroke="#0E3F25" stroke-width="1.57709" stroke-linecap="round" stroke-linejoin="round"/>
<path d="M55.1622 22.64C52.2502 22.64 50.3182 20.736 50.3182 17.81C50.3182 14.884 52.2502 12.98 55.1622 12.98C57.8082 12.98 59.6562 14.38 59.6562 16.62V16.816H57.9902V16.62C57.9902 15.192 57.0802 14.422 55.1762 14.422C52.9782 14.422 51.9142 15.472 51.9142 17.81C51.9142 20.148 52.9782 21.184 55.1762 21.184C57.0802 21.184 57.9902 20.428 57.9902 18.986V18.804H59.6562V18.986C59.6562 21.24 57.8222 22.64 55.1622 22.64ZM61.7501 22.5H60.0701L64.2561 13.12H66.3841L70.5701 22.5H68.8621L67.7841 20.064H62.8281L61.7501 22.5ZM64.7041 15.85L63.4301 18.706H67.1821L65.9081 15.85L65.3621 14.52H65.2501L64.7041 15.85ZM72.7821 22.5H71.2701V13.12H76.1421C78.2701 13.12 79.5861 14.128 79.5861 15.878C79.5861 17.432 78.5641 18.384 76.8001 18.482V18.58C77.5281 18.776 77.8641 19.196 78.2001 19.784L79.7681 22.5H78.0321L76.5341 19.91C76.1141 19.168 75.6801 18.86 74.5041 18.86H72.7821V22.5ZM72.7821 14.478V17.698H76.1281C77.3881 17.698 78.0181 17.264 78.0181 16.088C78.0181 14.94 77.3881 14.478 76.1281 14.478H72.7821ZM85.3383 22.5H83.8403V14.478H80.1443V13.12H89.0203V14.478H85.3383V22.5ZM95.6714 22.808L94.9014 23.508C93.6274 22.304 92.0874 20.47 92.0874 17.81C92.0874 15.15 93.6274 13.316 94.9014 12.112L95.6714 12.812C94.5094 14.324 93.7394 15.472 93.7394 17.81C93.7394 20.148 94.5094 21.296 95.6714 22.808ZM99.7563 22.5H98.2443V15.36H95.9483V14.282H96.3963C97.4323 14.282 98.0203 14.016 98.4263 13.12H99.7563V22.5ZM100.807 12.812L101.563 12.112C102.851 13.316 104.377 15.15 104.377 17.81C104.377 20.47 102.851 22.304 101.563 23.508L100.807 22.808C101.955 21.296 102.739 20.148 102.739 17.81C102.739 15.472 101.955 14.324 100.807 12.812Z" fill="black"/>
</svg>
