<svg width="17" height="18" viewBox="0 0 17 18" fill="none" xmlns="http://www.w3.org/2000/svg">
<path d="M4.06999 1.11453L1.70435 4.26872V15.3084C1.70435 15.7266 1.8705 16.1278 2.16627 16.4236C2.46203 16.7193 2.86317 16.8855 3.28144 16.8855H14.3211C14.7394 16.8855 15.1405 16.7193 15.4363 16.4236C15.732 16.1278 15.8982 15.7266 15.8982 15.3084V4.26872L13.5326 1.11453H4.06999Z" stroke="#0E3F25" stroke-width="1.57709" stroke-linecap="round" stroke-linejoin="round"/>
<path d="M1.70435 4.26871H15.8982" stroke="#0E3F25" stroke-width="1.57709" stroke-linecap="round" stroke-linejoin="round"/>
<path d="M11.9555 7.4229C11.9555 8.25944 11.6232 9.06173 11.0316 9.65325C10.4401 10.2448 9.63783 10.5771 8.80128 10.5771C7.96474 10.5771 7.16246 10.2448 6.57093 9.65325C5.97941 9.06173 5.64709 8.25944 5.64709 7.4229" stroke="#0E3F25" stroke-width="1.57709" stroke-linecap="round" stroke-linejoin="round"/>
</svg>
