<svg width="38" height="36" viewBox="0 0 38 36" fill="none" xmlns="http://www.w3.org/2000/svg">
<rect x="0.607422" y="0.543997" width="37.0969" height="34.912" rx="17.456" fill="#EEEEEE"/>
<path d="M26.386 11.8623C25.9682 11.4444 25.4722 11.1128 24.9263 10.8866C24.3804 10.6604 23.7952 10.544 23.2043 10.544C22.6134 10.544 22.0282 10.6604 21.4823 10.8866C20.9364 11.1128 20.4404 11.4444 20.0226 11.8623L19.1556 12.7293L18.2887 11.8623C17.4448 11.0185 16.3003 10.5444 15.107 10.5444C13.9136 10.5444 12.7691 11.0185 11.9253 11.8623C11.0815 12.7062 10.6074 13.8506 10.6074 15.044C10.6074 16.2374 11.0815 17.3818 11.9253 18.2257L12.7923 19.0927L19.1556 25.456L25.519 19.0927L26.386 18.2257C26.8039 17.8079 27.1355 17.3119 27.3617 16.766C27.5879 16.2201 27.7043 15.6349 27.7043 15.044C27.7043 14.4531 27.5879 13.8679 27.3617 13.322C27.1355 12.7761 26.8039 12.2801 26.386 11.8623Z" stroke="#1F3E25" stroke-width="1.63582" stroke-linecap="round" stroke-linejoin="round"/>
</svg>
